# xmcd CD database file
# Copyright (C) 1993-1998 Ti Kan
#
# Track frame offsets:
#	183
#	10865
#	26100
#	37540
#	54263
#	66558
#	75115
#	88678
#	101145
#	112428
#	126110
#	139328
#	154808
#	167548
#	180623
#	190750
#	202740
#	215653
#	224573
#
# Disc length: 3124 seconds
#
# Revision: 2
# Processed by: cddbd v1.4b41PL1 Copyright (c) Steve Scherf et al.
# Submitted via: CDValet v3.31 - Copyright (c) 1997 Greg Leichner
#
DISCID=090c3213
DTITLE=Grupo Vou Vivendo - Brasil Revive o Chorinho
DYEAR=1900
DGENRE=
TTITLE0=Feitico
TTITLE1=Esperando a Feijoada
TTITLE2=Meu Bem
TTITLE3=Bebe
TTITLE4=Apanhei-te cavaquinho
TTITLE5=Ze! traz o Paozinho
TTITLE6=Meu Caro Amigo
TTITLE7=Acerta o PAsso
TTITLE8=Tico Tico no Fuba
TTITLE9=Joao e Maria
TTITLE10=Lua de Mel
TTITLE11=Minhas Maos Meu Cavaquinho
TTITLE12=O Bom Filho a Casa Torna
TTITLE13=Atraente
TTITLE14=Meu Doce Chorinho
TTITLE15=Brasilliance
TTITLE16=Lamentos
TTITLE17=Joaquim Virou Padre
TTITLE18=Pot Pourri: Sofre Porque Queres/ Ingenuo Os 8 Batutas/
TTITLE18=Um a Zero
EXTD=
EXTT0=
EXTT1=
EXTT2=
EXTT3=
EXTT4=
EXTT5=
EXTT6=
EXTT7=
EXTT8=
EXTT9=
EXTT10=
EXTT11=
EXTT12=
EXTT13=
EXTT14=
EXTT15=
EXTT16=
EXTT17=
EXTT18=
PLAYORDER=
